<?xml version="1.0" encoding="iso-8859-1"?>
<!-- Uploaded to: SVG Repo, www.svgrepo.com, Generator: SVG Repo Mixer Tools -->
<svg height="800px" width="800px" version="1.1" id="Layer_1" xmlns="http://www.w3.org/2000/svg" xmlns:xlink="http://www.w3.org/1999/xlink" 
	 viewBox="0 0 512 512" xml:space="preserve">
<circle style="fill:#E15050;" cx="256" cy="256" r="256"/>
<path style="fill:#D24146;" d="M512,256c0-2.769-0.06-5.523-0.147-8.271L402.137,138.012L158.313,282.29l-51.012,40.019
	l186.858,186.858C417.444,490.741,512,384.417,512,256z"/>
<path style="fill:#E6F3FF;" d="M383.367,130.524H128.634c-15.074,0-27.293,12.219-27.293,27.293v147.477
	c0,15.074,12.219,27.293,27.293,27.293h147.877l35.992,48.89l35.992-48.89h34.875c15.074,0,27.293-12.219,27.293-27.293V157.817
	C410.66,142.743,398.439,130.524,383.367,130.524z"/>
<path style="fill:#CFDBE6;" d="M383.367,130.524h-127.94v202.062h21.083l35.992,48.89l35.992-48.89h34.875
	c15.074,0,27.293-12.219,27.293-27.293V157.817C410.66,142.743,398.439,130.524,383.367,130.524z"/>
<g>
	<path style="fill:#4A6475;" d="M231.865,179.286h-86.626c-3.332,0-6.034-2.701-6.034-6.034s2.701-6.034,6.034-6.034h86.626
		c3.332,0,6.034,2.701,6.034,6.034S235.198,179.286,231.865,179.286z"/>
	<path style="fill:#4A6475;" d="M366.761,217.643H145.239c-3.332,0-6.034-2.701-6.034-6.034s2.701-6.034,6.034-6.034h221.522
		c3.332,0,6.034,2.701,6.034,6.034S370.093,217.643,366.761,217.643z"/>
	<path style="fill:#4A6475;" d="M366.761,256H145.239c-3.332,0-6.034-2.701-6.034-6.034s2.701-6.034,6.034-6.034h221.522
		c3.332,0,6.034,2.701,6.034,6.034S370.093,256,366.761,256z"/>
</g>
<g>
	<path style="fill:#324A5E;" d="M366.761,205.576H255.426v12.067h111.335c3.332,0,6.034-2.701,6.034-6.034
		S370.093,205.576,366.761,205.576z"/>
	<path style="fill:#324A5E;" d="M366.761,243.933H255.426V256h111.335c3.332,0,6.034-2.701,6.034-6.034
		S370.093,243.933,366.761,243.933z"/>
	<path style="fill:#324A5E;" d="M366.761,294.357h-74.559c-3.332,0-6.034-2.701-6.034-6.034s2.701-6.034,6.034-6.034h74.559
		c3.332,0,6.034,2.701,6.034,6.034S370.093,294.357,366.761,294.357z"/>
</g>
</svg>